<svg version="1.2" xmlns="http://www.w3.org/2000/svg" viewBox="0 0 350 150" width="350" height="150"><style>.a{fill:#0a2540}</style><path class="a" d="m4.6 50.4v50.6h15.9v-27.4c0-7.6 3.3-11.3 11.5-11.3h4.4v-11.9h-4.3c-6.1 0-9.9 3.7-11.8 10.5l-0.3-10.5zm29.8 25.3c0 16 10.4 26.4 26.1 26.4 11.7 0 21.2-6.2 24.2-16l-15.9-1.1c-1.4 3.3-4.7 5.5-8.3 5.5-5.7 0-9.2-4.1-9.5-10.6h34.3l0.1-2.4c0.3-17.6-10.4-28.2-24.9-28.2-15.7 0-26.1 10.5-26.1 26.4zm16.6-5c0.6-6 4.1-9.8 9.5-9.8 4.6 0 8.3 3.1 8.9 9.8zm56.9 28.1c6 0 11.5-3 13.8-7.4v4.4c0 6.7-3.3 10-9.1 10-4.1 0-7.1-1.9-8.2-4.7l-16.1 1.1c2.9 8.6 12.2 14.2 24.1 14.2 15 0 25.3-8.4 25.3-21.9v-44.1h-15.7v7.8c-2.8-5.7-8-8.9-14.1-8.9-12.8 0-21.1 10.2-21.1 25.6 0 14.4 8.3 23.9 21.1 23.9zm-4.8-24c0-8.4 3.7-13.7 9.7-13.7 5.9 0 9.7 5.3 9.6 13.7 0 8.1-3.8 13.5-9.6 13.5-5.8 0-9.7-5.4-9.7-13.5zm40.2-24.4v50.6h15.9v-50.6zm-0.3-6.1h16.4v-11h-16.4zm45.6 57.8c15.7 0 26-10.5 26-26.4 0-16-10.3-26.5-26-26.5-15.7 0-26.1 10.5-26.1 26.5 0 15.9 10.4 26.4 26.1 26.4zm-9.7-26.4c0-9.2 3.4-14.4 9.7-14.4 6.2 0 9.7 5.2 9.7 14.4 0 9.1-3.5 14.3-9.7 14.3-6.3 0-9.7-5.2-9.7-14.3zm38.6-25.3v50.5h15.9v-27c0-7.6 2.5-11.9 7.6-11.9 5.4 0 6.6 4.3 6.6 11.9v27h16v-32.5c0-12-6.5-19.2-17-19.2-6.4 0-11.8 2.4-14.5 9.1l-0.4-7.9zm49.5 15.9l15.8 0.7c0.9-5.2 3.5-7.9 7.8-7.9 5.1 0 7.4 3.3 7.4 10.4l-13.1 2.7c-12.2 2.5-18.7 6.4-18.7 15.4 0 8.9 7.6 14.5 17.5 14.5 9.4 0 14.9-3.4 17.5-8.8 1.8 9.7 13.1 7.9 15.7 7.8l2.1-0.2v-10.7h-1.8c-1.6 0-3-0.6-3-4.2v-14.5c0-14.8-7.8-22.3-23.5-22.3-13.7 0-21.8 5.9-23.7 17.1zm15.5 20.6c0-4.5 3.6-5.6 8.8-6.7l7-1.3v0.7c0 8.2-3.7 12.5-9.1 12.5-4.3 0-6.7-2.2-6.7-5.2zm39.4-53.7v52.3c0 10 5.9 15.4 15 15.4h8.2v-11.8h-3.2c-2.6 0-4.1-1.6-4.1-4.3v-51.6z"/></svg>